#N canvas 743 259 395 281 10;
#N canvas 169 251 450 300 coso 0;
#X obj 12 29 expr~ (((($v1|($v1%126))*1.07)>>0)&130);
#X obj 12 271 s~ wave;
#X obj 12 3 r~ time;
#X connect 0 0 1 0;
#X connect 2 0 0 0;
#X restore 7 184 pd coso;
#X obj 6 5 netreceive 9999;
#X obj 6 160 print >;
#X obj 6 138 s pd-coso;
#X obj 108 248 s~ time;
#X msg 6 57 clear;
#X obj 6 35 loadbang;
#X obj 110 85 netreceive 9998;
#X floatatom 110 154 10 0 0 1 Hz - -;
#X obj 110 131 / 120;
#X msg 110 51 120;
#X msg 6 91 \; pd dsp 1;
#X floatatom 110 108 10 0 0 1 bpm - -;
#X obj 109 202 phasor~;
#X msg 160 202 0;
#X obj 246 85 r~ wave;
#X obj 235 165 dac~;
#X obj 245 130 clip~ -1 1;
#X obj 110 176 /~ 32;
#X obj 246 108 expr~ (($v1&255)/256);
#X obj 109 225 expr~ $v1*(1<<18);
#X connect 1 0 2 0;
#X connect 1 0 3 0;
#X connect 5 0 3 0;
#X connect 6 0 5 0;
#X connect 6 0 10 0;
#X connect 6 0 11 0;
#X connect 7 0 12 0;
#X connect 8 0 18 0;
#X connect 9 0 8 0;
#X connect 10 0 9 0;
#X connect 12 0 9 0;
#X connect 13 0 20 0;
#X connect 14 0 13 1;
#X connect 15 0 19 0;
#X connect 17 0 16 0;
#X connect 17 0 16 1;
#X connect 18 0 13 0;
#X connect 19 0 17 0;
#X connect 20 0 4 0;
